<?xml version="1.0" encoding="utf-8"?>
<!-- Svg Vector Icons : http://www.onlinewebfonts.com/icon -->
<!DOCTYPE svg PUBLIC "-//W3C//DTD SVG 1.1//EN" "http://www.w3.org/Graphics/SVG/1.1/DTD/svg11.dtd">
<svg version="1.1" xmlns="http://www.w3.org/2000/svg" xmlns:xlink="http://www.w3.org/1999/xlink" x="0px" y="0px" viewBox="0 0 1000 1000" enable-background="new 0 0 1000 1000" xml:space="preserve">
<metadata> Svg Vector Icons : http://www.onlinewebfonts.com/icon </metadata>
<g><g fill="#fff" transform="translate(0.000000,511.000000) scale(0.100000,-0.100000)"><path d="M4549,2710.7c-984.6-106.7-1965-508.7-2963.9-1216.3C1137.9,1178.5,598.5,710.9,272.3,358.1C40.6,107.8,40.6,107.8,284.6-154.7c853.3-916.9,2096.3-1743.5,3148.5-2094.2c576.4-190.8,980.4-256.4,1567.1-256.4c453.3,0,711.8,28.7,1107.6,123.1c1181.5,287.2,2455.2,1058.4,3511.6,2131.2C9882,15.5,9916.8,66.8,9894.3,155c-14.3,61.5-492.3,545.6-791.7,802c-1099.4,943.5-2246,1526.1-3374.1,1716.8C5443.3,2721,4821.8,2741.5,4549,2710.7z M5695.6,2323.1C6594,2167.2,7490.3,1752.9,8394.9,1076c295.4-221.5,666.6-543.6,892.3-773.3L9482,105.8L9205.1-165c-867.6-847.1-1975.2-1530.2-2935.2-1809.1c-851.2-248.2-1618.4-254.3-2469.6-20.5C2791.1-1717.7,1585.1-971.1,703.1-78.8L518.5,107.8l184.6,186.7c884,892.3,2055.3,1618.4,3093.1,1913.7c213.3,61.5,555.9,129.2,783.5,155.9C4842.3,2392.8,5404.3,2372.3,5695.6,2323.1z"/><path d="M4674.1,1830.8c-352.8-73.8-652.3-235.9-906.6-490.2c-209.2-209.2-340.5-420.5-432.8-699.4c-63.6-188.7-65.6-207.2-65.6-533.3c0-326.1,2.1-344.6,65.6-533.3c90.3-272.8,223.6-486.1,422.5-687.1c354.9-354.8,750.7-523,1243-523c486.1,0,888.1,168.2,1232.7,510.7c342.5,344.6,510.7,746.6,510.7,1232.7c0,492.3-168.2,888.1-523,1243c-201,201-416.4,332.3-687.1,422.5c-174.3,55.4-225.6,63.6-482,69.7C4893.6,1847.2,4723.3,1841.1,4674.1,1830.8z M5441.2,1432.9c420.5-143.6,730.2-449.2,880-871.7c59.5-164.1,63.6-194.9,63.6-453.3c0-250.2-6.2-293.3-57.4-441c-149.7-424.6-453.3-730.2-873.8-880c-164.1-59.5-196.9-63.6-453.3-63.6c-256.4,0-289.2,4.1-453.3,63.6c-557.9,199-910.7,674.8-937.4,1261.5c-8.2,174.4,0,248.2,32.8,385.6c131.3,516.9,498.4,890.2,1013.3,1027.6C4877.2,1521.1,5217.6,1508.8,5441.2,1432.9z"/><path d="M4893.6,622.7c-196.9-39-385.6-240-412.3-436.9c-28.7-219.5,84.1-438.9,279-537.4c488.2-248.2,970.2,303.6,664.6,761C5318.2,567.3,5084.3,659.6,4893.6,622.7z"/></g></g>
</svg>
